<svg xmlns="http://www.w3.org/2000/svg" xmlns:xlink="http://www.w3.org/1999/xlink" width="524.48" height="1080" viewBox="0 0 524.48 1080">
  <defs>
    <clipPath id="clip-path">
      <rect id="Rectangle_1447" data-name="Rectangle 1447" width="524.48" height="1080" fill="#0048ae"/>
    </clipPath>
  </defs>
  <g id="Group_4" data-name="Group 4" transform="translate(0 -0.001)">
    <g id="Group_7" data-name="Group 7" transform="translate(0 0.001)" clip-path="url(#clip-path)">
      <g id="Group_6" data-name="Group 6" style="isolation: isolate">
        <g id="Group_5" data-name="Group 5">
          <g id="Group_4-2" data-name="Group 4" clip-path="url(#clip-path)">
            <path id="Path_211" data-name="Path 211" d="M1.027,3.291c9.33-10.823,38.921,7.911,89.6,15.053,55.378,7.8,66.644-9,110.489,5.593,17.687,5.885,32.163,14,50.224,24.239,23.655,13.41,35.615,20.347,42.186,31.7,5.369,9.272,5.35,15.925,14.063,24.238,7.733,7.38,14.63,8.705,24.167,12.98,15.332,6.872,22.83,18.389,44.141,35.277,10.295,8.159,17.49,17.958,31.878,37.555,20.951,28.531,34.391,46.834,39.236,73.969a144.163,144.163,0,0,1,1.226,38.691c-2.122,19.9-6.4,19.133-5.586,27.355,2.849,28.652,54.341,32.895,76.7,76.2,7.04,13.633,5.3,19.733,3.679,22.759-6.151,11.457-26.052,7.469-33.106,20.484-3.291,6.071-3.213,14.787,1.226,19.346,5.015,5.149,12.27,1.578,18.392,6.828,6.931,5.942,5.251,17.053,4.9,19.346-2.365,15.657-25.186,21.267-23.3,26.174,1.306,3.391,11.271-.033,17.166,5.69,5.378,5.22,5.242,15.989,0,21.622-5.76,6.189-13.476,1.656-20.845,5.69-17.364,9.506,2.316,47.366-15.938,69.417-8.036,9.706-19.708,11.866-41.689,15.932-38.451,7.113-57.5-4.087-98.09,5.69-9.73,2.345-19.888,5.7-23.3,13.657-4.166,9.724,3.883,21.328,4.9,22.759,5.638,7.906,11.526,8.536,14.713,12.519,9.615,12.017-13.478,37.477-30.652,63.727,0,0-12.165,18.593-31.877,64.409-41.979,97.577,87.163,241.389,63.448,256.715-1.6,1.034-3.1.972-6.993.841-33.289-1.1-66.728,1.686-99.926-.841-1.424-.108-.5-.032-85.772,0-70.135.026-135.268,0-135.274,0s.112-22.877.155-36.437c.057-17.495.018-23.308,0-55.614,0,0,0-4.634,0-45.8,0-72.78,1.35-164.108,1.175-262.808-.148-83.93-1.215-71.605-1.175-151.578.045-84.069,1.184-88.66,1.175-167.935-.009-77.308-1.118-78.872-1.175-176.66-.033-58.488.193-72.729.154-92.493-.024-12.545-.109-11.91-.154-24.189-.122-34.305.3-30.751-.04-39.656C.412,6.6-.954,5.589,1.027,3.291" transform="translate(0 -0.001)" fill="#0048ae"/>
          </g>
        </g>
      </g>
    </g>
  </g>
</svg>
