<svg xmlns="http://www.w3.org/2000/svg" xmlns:xlink="http://www.w3.org/1999/xlink" width="412" height="918" viewBox="0 0 412 918">
  <defs>
    <clipPath id="clip-path">
      <rect id="Rectangle_1447" data-name="Rectangle 1447" width="416" height="926" transform="translate(-0.171)" fill="#0048ae"/>
    </clipPath>
    <clipPath id="clip-Artboard_13">
      <rect width="412" height="918"/>
    </clipPath>
  </defs>
  <g id="Artboard_13" data-name="Artboard – 13" clip-path="url(#clip-Artboard_13)">
    <g id="Group_44" data-name="Group 44" transform="translate(0.171 -0.001)">
      <g id="Group_7" data-name="Group 7" transform="translate(-7 0.001)" clip-path="url(#clip-path)">
        <g id="Group_6" data-name="Group 6" style="isolation: isolate">
          <g id="Group_5" data-name="Group 5">
            <g id="Group_4" data-name="Group 4" clip-path="url(#clip-path)">
              <path id="Path_211" data-name="Path 211" d="M.814,2.822C8.212-6.458,31.673,9.6,71.851,15.729c43.906,6.69,52.838-7.713,87.6,4.8,14.023,5.046,25.5,12,39.819,20.783,18.754,11.5,28.237,17.446,33.447,27.176,4.257,7.95,4.241,13.654,11.15,20.782,6.131,6.328,11.6,7.464,19.16,11.129,12.156,5.892,18.1,15.767,35,30.247,8.162,7,13.867,15.4,25.274,32.2C339.909,187.3,350.565,203,354.406,226.263a133.575,133.575,0,0,1,.972,33.174c-1.682,17.058-5.076,16.4-4.428,23.454,2.259,24.566,43.084,28.2,60.812,65.337,5.582,11.689,4.2,16.919,2.917,19.514-4.877,9.824-20.655,6.4-26.247,17.563-2.609,5.205-2.547,12.679.972,16.588,3.976,4.415,9.728,1.353,14.582,5.854,5.5,5.095,4.163,14.621,3.889,16.588C406,437.76,387.9,442.569,389.4,446.776c1.036,2.907,8.936-.028,13.61,4.879,4.264,4.476,4.156,13.709,0,18.539-4.567,5.306-10.685,1.42-16.526,4.878-13.767,8.151,1.836,40.612-12.637,59.519-6.371,8.322-15.626,10.174-33.053,13.66-30.485,6.1-45.588-3.5-77.769,4.878-7.715,2.01-15.768,4.886-18.47,11.709-3.3,8.337,3.079,18.287,3.889,19.514,4.47,6.778,9.139,7.319,11.665,10.734,7.623,10.3-10.686,32.133-24.3,54.64,0,0-9.645,15.941-25.273,55.225-33.283,83.663,69.107,206.969,50.3,220.109-1.268.886-2.46.833-5.545.721-26.393-.947-52.9,1.446-79.225-.721-1.129-.093-.393-.027-68,0-55.606.023-107.246,0-107.251,0S.9,905.446.938,893.82c.045-15,.014-19.985,0-47.684,0,0,0-3.973,0-39.271,0-62.4,1.07-140.707.932-225.334C1.752,509.57.906,520.137.938,451.568c.036-72.081.939-76.017.932-143.989C1.862,241.3.983,239.954.938,156.11c-.026-50.148.153-62.359.122-79.3C1.041,66.05.973,66.594.938,56.066c-.1-29.414.238-26.366-.032-34C.327,5.656-.756,4.792.814,2.822" transform="translate(0 -0.001)" fill="#0048ae"/>
            </g>
          </g>
        </g>
      </g>
    </g>
  </g>
</svg>
