<?xml version="1.0" encoding="utf-8"?>
<!-- Generator: Adobe Illustrator 26.1.0, SVG Export Plug-In . SVG Version: 6.00 Build 0)  -->
<svg version="1.1" id="Layer_1" xmlns="http://www.w3.org/2000/svg" xmlns:xlink="http://www.w3.org/1999/xlink" x="0px" y="0px"
	 viewBox="0 0 493.5 493.5" style="enable-background:new 0 0 493.5 493.5;" xml:space="preserve">
<style type="text/css">
	.st0{fill:#1D4D9D;}
	.st1{fill:#CE4793;}
	.st2{fill:none;}
	.st3{fill:#F9B333;}
</style>
<circle class="st0" cx="246.8" cy="246.7" r="245.8"/>
<path class="st1" d="M246.8,493.5C110.5,493.5,0,383,0,246.8c0-65.4,26-128.2,72.3-174.5c96.4-96.4,252.6-96.4,349,0
	s96.4,252.6,0,349C375.1,467.7,312.2,493.7,246.8,493.5z M246.8,2C111.6,2,2,111.6,2,246.7c0,64.9,25.8,127.2,71.7,173.1
	c95.6,95.6,250.5,95.6,346.1,0s95.6-250.5,0-346.1C374,27.6,311.7,1.8,246.8,2z"/>
<rect x="245.8" y="1" class="st1" width="2" height="491.5"/>
<line class="st2" x1="1" y1="246.7" x2="492.5" y2="246.7"/>
<rect x="1" y="245.7" class="st1" width="491.5" height="2"/>
<line class="st2" x1="52.5" y1="397.3" x2="441" y2="96.2"/>
<rect x="1" y="245.7" transform="matrix(0.7902 -0.6129 0.6129 0.7902 -99.454 203.0105)" class="st1" width="491.5" height="2"/>
<line class="st2" x1="66.3" y1="79.4" x2="426.2" y2="414.1"/>
<rect x="245.2" y="1" transform="matrix(0.6808 -0.7324 0.7324 0.6808 -102.1217 259.0997)" class="st1" width="2" height="491.5"/>
<path class="st3" d="M346.5,215c0.6,0,1.1,0.2,1.6,0.5c0.7,0.9,1.2,1.9,1.4,2.9c0.3,0.9,0.5,1.9,0.5,2.9c-0.1,0.8-0.4,1.5-0.9,2
	c-0.7,0.6-1.5,1.1-2.4,1.4c-1,0.4-2,0.5-3,0.3c-0.7-0.1-1.3-0.5-1.8-1c-0.6-0.9-1-1.9-1.3-2.9l-0.4-1.2l3.8-1.2l0.8,2.4
	c0.1,0.4,0.3,0.8,0.5,1.2c0.2,0.2,0.4,0.2,0.6,0.1c0.3-0.1,0.4-0.3,0.5-0.5c-0.1-0.6-0.2-1.2-0.4-1.8l-0.3-1
	c-0.1-0.4-0.3-0.9-0.6-1.2c-0.2-0.2-0.5-0.3-0.8-0.3c-0.5,0-1,0.2-1.5,0.3l-0.7-2.2c0.6-0.2,1.1-0.4,1.6-0.6
	c0.2-0.1,0.3-0.4,0.3-0.6c0-0.4-0.1-0.8-0.2-1.1l-0.3-0.8c-0.1-0.4-0.2-0.7-0.5-1c-0.3-0.2-0.7-0.1-0.9,0.2c0,0,0,0.1-0.1,0.1
	c0,0.4,0,0.7,0.2,1.1l0.4,1.2l-3.8,1.2l-0.4-1.3c-0.5-1.4-0.5-2.5,0-3.2c0.7-0.9,1.8-1.5,2.9-1.8c1.8-0.6,3.1-0.6,4-0.1
	c0.9,0.6,1.6,1.5,1.9,2.6c0.2,0.6,0.3,1.3,0.2,1.9C347.1,214.1,346.8,214.6,346.5,215z"/>
<path class="st3" d="M357.9,209.7l1.6,5c0.3,0.8,0.5,1.7,0.6,2.6c0,0.6-0.1,1.2-0.3,1.7c-0.2,0.6-0.6,1.1-1.1,1.4
	c-0.5,0.4-1.1,0.7-1.8,0.9c-0.8,0.3-1.5,0.4-2.3,0.4c-0.6,0-1.2-0.2-1.7-0.5c-0.5-0.3-0.9-0.7-1.2-1.1c-0.4-0.7-0.8-1.5-1-2.2
	l-1.7-5.2c-0.4-1-0.6-2.1-0.6-3.2c0-0.8,0.3-1.5,0.9-2.1c0.6-0.7,1.5-1.2,2.4-1.5c0.8-0.3,1.6-0.4,2.4-0.3c0.6,0,1.3,0.2,1.8,0.6
	c0.5,0.3,0.8,0.7,1.1,1.2C357.3,208,357.6,208.9,357.9,209.7z M353.7,209.7c-0.1-0.5-0.3-1-0.6-1.5c-0.2-0.2-0.4-0.2-0.6-0.1
	c-0.2,0-0.4,0.3-0.5,0.5c0,0.5,0.1,1,0.3,1.5l2.4,7.3c0.1,0.5,0.3,1.1,0.6,1.5c0.2,0.2,0.4,0.2,0.6,0.1c0.2,0,0.4-0.2,0.4-0.5
	c0-0.5-0.1-1-0.3-1.5L353.7,209.7z"/>
<path class="st3" d="M368.1,206.4l1.6,5c0.3,0.8,0.5,1.7,0.6,2.6c0,0.6-0.1,1.2-0.3,1.7c-0.2,0.6-0.6,1.1-1.1,1.4
	c-0.5,0.4-1.1,0.7-1.8,0.9c-0.8,0.3-1.5,0.4-2.3,0.4c-0.6,0-1.2-0.2-1.7-0.5c-0.5-0.3-0.9-0.7-1.2-1.1c-0.4-0.7-0.8-1.5-1-2.2
	l-1.7-5.2c-0.4-1-0.6-2.1-0.6-3.2c0-0.8,0.3-1.5,0.9-2.1c0.6-0.7,1.5-1.2,2.4-1.4c0.8-0.3,1.6-0.4,2.4-0.3c0.6,0,1.3,0.2,1.8,0.6
	c0.5,0.3,0.8,0.7,1.1,1.2C367.5,204.7,367.8,205.6,368.1,206.4z M363.9,206.4c-0.1-0.5-0.3-1-0.6-1.5c-0.2-0.2-0.4-0.2-0.6-0.1
	c-0.2,0.1-0.4,0.3-0.5,0.5c0,0.5,0.1,1,0.3,1.5l2.4,7.3c0.1,0.5,0.4,1.1,0.6,1.5c0.2,0.2,0.4,0.2,0.6,0.1c0.2,0,0.4-0.2,0.4-0.5
	c0-0.5-0.1-1-0.3-1.5L363.9,206.4z"/>
<path class="st3" d="M375.8,201.3l0.3,1.1c0.2-0.5,0.4-1,0.8-1.3c0.3-0.4,0.7-0.6,1.2-0.8c0.5-0.2,1.1-0.2,1.7,0
	c0.5,0.1,0.9,0.4,1.1,0.8c0.3,0.6,0.6,1.3,0.8,2l1.7,5.2c0.3,0.8,0.5,1.6,0.6,2.5c0,0.5-0.1,1-0.5,1.4c-0.7,0.8-1.7,1.2-2.8,1
	c-0.5-0.1-1-0.3-1.4-0.6l0.9,2.8l-3.8,1.2l-4.6-14.1L375.8,201.3z M378.1,204.5c-0.1-0.5-0.3-0.9-0.5-1.4c-0.1-0.1-0.3-0.2-0.5-0.1
	c-0.2,0-0.4,0.2-0.4,0.4c0,0.5,0.2,0.9,0.3,1.4l1.6,5.1c0.1,0.5,0.3,0.9,0.6,1.4c0.1,0.2,0.4,0.2,0.6,0.1c0.2-0.1,0.4-0.2,0.4-0.4
	c-0.1-0.4-0.2-0.9-0.3-1.3L378.1,204.5z"/>
<path class="st3" d="M391.8,200.9l1,3c0.3,0.8,0.5,1.6,0.6,2.5c0.1,0.6,0,1.1-0.2,1.7c-0.2,0.6-0.6,1.1-1.1,1.4
	c-0.6,0.4-1.2,0.8-1.9,1c-0.7,0.2-1.4,0.4-2.2,0.4c-0.6,0-1.1-0.1-1.6-0.4c-0.5-0.3-0.8-0.7-1.1-1.1c-0.4-0.7-0.8-1.5-1-2.3l-1-3.1
	c-0.3-0.9-0.5-1.9-0.5-2.8c0-0.7,0.3-1.5,0.8-2c0.6-0.7,1.4-1.1,2.3-1.4c0.7-0.3,1.5-0.4,2.3-0.3c0.6,0,1.2,0.2,1.7,0.5
	c0.4,0.3,0.8,0.6,1.1,1C391.3,199.6,391.6,200.2,391.8,200.9z M387.8,201.2c-0.1-0.4-0.3-0.8-0.5-1.2c-0.2-0.2-0.6-0.2-0.8,0.1
	c-0.1,0.1-0.1,0.1-0.1,0.2c0,0.4,0.1,0.8,0.3,1.2l1.8,5.6c0.1,0.4,0.3,0.8,0.5,1.1c0.1,0.1,0.3,0.2,0.5,0.1c0.2,0,0.3-0.2,0.4-0.4
	c0-0.4-0.1-0.7-0.2-1.1L387.8,201.2z"/>
<path class="st3" d="M394.6,192.2l0.6,2l-3.9,1.2l-0.6-2L394.6,192.2z M395.5,194.9l4,12.3l-3.9,1.2l-4-12.3L395.5,194.9z"/>
<path class="st3" d="M400.6,193.2l0.3,1.1c0.1-0.5,0.3-1,0.7-1.3c0.3-0.4,0.8-0.6,1.2-0.8c0.6-0.2,1.2-0.2,1.7-0.1
	c0.5,0.2,0.9,0.5,1.2,0.9c0.4,0.7,0.7,1.5,0.9,2.2l2.8,8.6l-3.8,1.2l-2.7-8.5c-0.1-0.5-0.3-1-0.6-1.5c-0.1-0.2-0.4-0.2-0.6-0.1
	c-0.2,0-0.4,0.3-0.4,0.5c0.1,0.6,0.2,1.2,0.5,1.7l2.7,8.3l-3.8,1.2l-4-12.3L400.6,193.2z"/>
<path class="st3" d="M410.2,188.3l0.6,1.9l1-0.3l0.6,1.9l-1,0.3l2.1,6.6c0.1,0.5,0.3,0.9,0.6,1.3c0.1,0.1,0.5,0,1.1-0.2l0.6,2
	l-1.5,0.5c-0.6,0.2-1.2,0.4-1.9,0.5c-0.4,0-0.8,0-1.1-0.2c-0.3-0.1-0.6-0.4-0.8-0.7c-0.3-0.7-0.6-1.5-0.9-2.3l-2-6.3l-0.8,0.3
	l-0.6-1.9l0.8-0.3l-0.6-2L410.2,188.3z"/>
<path class="st3" d="M347.1,280.1l-5.6,8.7l0.9,0.6l-1.4,2.3l-1-0.6l-1.5,2.3l-3.3-2.1l1.5-2.3l-3.9-2.5l1.5-2.3l8.5-6.8
	L347.1,280.1z M338.2,286.6l3.7-5.6l-5.1,4.7L338.2,286.6z"/>
<path class="st3" d="M353.6,290.7l-2.9,4.4c-0.5,0.7-1,1.4-1.6,2.1c-0.4,0.4-1,0.7-1.5,0.8c-0.6,0.2-1.2,0.2-1.8,0.1
	c-0.6-0.2-1.3-0.4-1.8-0.8c-0.7-0.4-1.3-0.9-1.8-1.5c-0.4-0.5-0.6-1.1-0.7-1.7c-0.1-0.6,0-1.1,0.1-1.7c0.3-0.8,0.6-1.5,1.1-2.2
	l3-4.6c0.6-0.9,1.3-1.8,2.1-2.5c0.6-0.5,1.4-0.7,2.2-0.6c0.9,0.1,1.9,0.4,2.6,0.9c0.7,0.4,1.3,1,1.7,1.6c0.4,0.5,0.6,1.1,0.7,1.8
	c0,0.5,0,1.1-0.2,1.6C354.6,289.2,354.1,290,353.6,290.7z M351.1,287.4c0.3-0.4,0.6-0.9,0.8-1.4c0-0.2-0.1-0.5-0.3-0.6
	c-0.2-0.1-0.5-0.1-0.7,0c-0.4,0.4-0.7,0.8-1,1.2l-4.2,6.5c-0.3,0.4-0.6,0.9-0.8,1.5c0,0.2,0.1,0.4,0.3,0.5c0.2,0.1,0.5,0.1,0.7,0
	c0.4-0.3,0.7-0.7,0.9-1.2L351.1,287.4z"/>
<path class="st3" d="M362.6,296.5l-2.9,4.4c-0.4,0.8-1,1.5-1.6,2.1c-0.4,0.4-0.9,0.7-1.5,0.9c-0.6,0.2-1.2,0.2-1.8,0
	c-0.6-0.2-1.3-0.4-1.8-0.8c-0.7-0.4-1.3-0.9-1.8-1.6c-0.4-0.5-0.6-1.1-0.7-1.7c-0.1-0.6,0-1.1,0.1-1.6c0.3-0.8,0.7-1.5,1.1-2.2
	l3-4.6c0.6-0.9,1.3-1.8,2.1-2.5c0.6-0.5,1.4-0.7,2.2-0.6c0.9,0.1,1.9,0.4,2.6,0.9c0.7,0.4,1.3,1,1.7,1.6c0.4,0.5,0.6,1.1,0.7,1.8
	c0,0.6,0,1.1-0.2,1.6C363.6,295,363.1,295.8,362.6,296.5z M360,293.3c0.3-0.4,0.6-0.9,0.8-1.4c0-0.2-0.1-0.5-0.3-0.6
	c-0.2-0.1-0.5-0.1-0.7,0c-0.4,0.4-0.7,0.8-1,1.2l-4.2,6.5c-0.3,0.4-0.6,0.9-0.8,1.5c0,0.2,0.1,0.5,0.3,0.5c0.2,0.1,0.5,0.1,0.7,0
	c0.4-0.3,0.7-0.7,0.9-1.2L360,293.3z"/>
<path class="st3" d="M371.5,299.3l-0.7,0.9c0.5-0.2,1-0.3,1.5-0.2c0.5,0,0.9,0.2,1.4,0.5c0.5,0.3,0.9,0.7,1.1,1.3
	c0.2,0.4,0.2,0.9,0.1,1.4c-0.3,0.7-0.6,1.3-1,1.9l-3,4.6c-0.4,0.7-1,1.4-1.5,2c-0.4,0.3-0.9,0.5-1.4,0.5c-0.6,0-1.1-0.2-1.5-0.5
	c-0.4-0.2-0.8-0.6-1-1c-0.2-0.5-0.4-1-0.4-1.5l-1.6,2.5l-3.3-2.1l8.1-12.4L371.5,299.3z M370.4,303.1c0.3-0.4,0.5-0.8,0.7-1.3
	c0.1-0.2,0-0.3-0.3-0.5c-0.2-0.1-0.4-0.1-0.6,0c-0.3,0.3-0.6,0.7-0.9,1.1l-2.9,4.5c-0.3,0.4-0.5,0.8-0.7,1.3c0,0.2,0.1,0.4,0.3,0.5
	c0.2,0.1,0.4,0.1,0.5,0c0.3-0.3,0.6-0.6,0.8-1L370.4,303.1z"/>
<path class="st3" d="M381.9,311.4l-1.7,2.7c-0.4,0.7-1,1.4-1.5,2c-0.4,0.4-0.9,0.7-1.5,0.9c-0.6,0.2-1.2,0.2-1.8,0.1
	c-0.7-0.2-1.3-0.4-1.9-0.8c-0.6-0.4-1.2-0.9-1.7-1.5c-0.4-0.4-0.6-0.9-0.7-1.5c-0.1-0.5,0-1.1,0.2-1.6c0.3-0.8,0.7-1.5,1.2-2.2
	l1.8-2.8c0.5-0.8,1.1-1.5,1.9-2.1c0.6-0.4,1.3-0.6,2.1-0.6c0.9,0.1,1.8,0.4,2.5,0.9c0.7,0.4,1.2,0.9,1.7,1.6
	c0.4,0.5,0.6,1.1,0.7,1.7c0.1,0.5,0,1-0.1,1.5C382.6,310.3,382.3,310.9,381.9,311.4z M379.1,308.4c0.3-0.3,0.4-0.7,0.6-1.1
	c0-0.2-0.1-0.4-0.2-0.5c-0.2-0.1-0.4-0.1-0.5,0c-0.3,0.3-0.6,0.6-0.8,1l-3.2,4.9c-0.2,0.3-0.4,0.7-0.5,1.1c0,0.2,0.1,0.4,0.2,0.5
	c0.2,0.1,0.4,0.1,0.5,0c0.3-0.2,0.5-0.5,0.7-0.9L379.1,308.4z"/>
<path class="st3" d="M388.8,310.5l-7,10.9l-3.4-2.2l7.1-10.9L388.8,310.5z M390.4,308.1l-1.1,1.7l-3.4-2.2l1.1-1.7L390.4,308.1z"/>
<path class="st3" d="M393.4,313.5l-0.7,1c0.5-0.2,1-0.3,1.5-0.3c0.5,0,1,0.2,1.4,0.5c0.5,0.3,0.9,0.8,1.1,1.3c0.2,0.5,0.2,1,0,1.5
	c-0.3,0.8-0.7,1.5-1.2,2.1l-4.9,7.6l-3.3-2.2l4.9-7.5c0.3-0.5,0.6-1,0.8-1.5c0.1-0.2,0-0.4-0.2-0.5c-0.2-0.2-0.4-0.2-0.6,0
	c-0.4,0.4-0.8,0.9-1.1,1.5l-4.8,7.4l-3.3-2.1l7-10.9L393.4,313.5z"/>
<path class="st3" d="M403.2,317.8l-1.1,1.7l0.9,0.6l-1.1,1.7l-0.9-0.6l-3.8,5.8c-0.3,0.4-0.5,0.8-0.7,1.3c0,0.1,0.3,0.4,0.8,0.7
	l-1.1,1.8l-1.3-0.9c-0.6-0.3-1.1-0.7-1.5-1.1c-0.3-0.3-0.5-0.6-0.6-1c-0.1-0.4-0.1-0.7,0-1.1c0.4-0.7,0.8-1.4,1.2-2.1l3.6-5.5
	l-0.7-0.5l1.1-1.7l0.7,0.5l1.1-1.7L403.2,317.8z"/>
<path class="st3" d="M194.9,154.8l14.6-6l1.5,3.6l-7.8,3.2c-0.7,0.3-1.4,0.6-2,0.9c-0.2,0.2-0.3,0.4-0.3,0.7
	c0.1,0.6,0.2,1.2,0.5,1.7l0.1,0.4l-1.7,0.7c-0.9-1.5-2.3-2.6-4-3.1L194.9,154.8z"/>
<path class="st3" d="M195.7,142.7l4.9-2c0.8-0.4,1.6-0.6,2.5-0.8c0.6-0.1,1.2,0,1.7,0.2c0.6,0.2,1.1,0.5,1.5,1
	c0.4,0.5,0.8,1.1,1,1.7c0.3,0.7,0.5,1.5,0.6,2.3c0.1,0.6-0.1,1.2-0.4,1.8c-0.2,0.5-0.6,0.9-1,1.3c-0.7,0.5-1.4,0.9-2.2,1.1l-5.1,2.1
	c-1,0.5-2.1,0.8-3.2,0.9c-0.8,0-1.6-0.2-2.2-0.7c-0.7-0.6-1.3-1.4-1.6-2.3c-0.3-0.7-0.5-1.5-0.5-2.3c0-0.6,0.1-1.3,0.4-1.8
	c0.3-0.5,0.6-0.9,1.1-1.2C194.1,143.4,194.9,143,195.7,142.7z M196,146.9c-0.5,0.2-1,0.4-1.4,0.7c-0.2,0.2-0.2,0.4-0.1,0.6
	c0.1,0.2,0.3,0.4,0.5,0.4c0.5-0.1,1-0.2,1.5-0.5l7.1-3c0.5-0.2,1-0.4,1.5-0.8c0.1-0.2,0.1-0.4,0-0.6c-0.1-0.2-0.3-0.4-0.5-0.4
	c-0.5,0.1-1,0.2-1.4,0.4L196,146.9z"/>
<path class="st3" d="M191.6,132.8l4.9-2c0.8-0.4,1.7-0.6,2.5-0.8c0.6-0.1,1.2,0,1.7,0.2c0.6,0.2,1.1,0.5,1.5,1
	c0.4,0.5,0.8,1.1,1,1.7c0.3,0.7,0.5,1.5,0.6,2.3c0.1,0.6-0.1,1.2-0.4,1.8c-0.2,0.5-0.6,0.9-1,1.3c-0.7,0.5-1.4,0.9-2.2,1.1l-5.1,2.1
	c-1,0.5-2.1,0.8-3.2,0.9c-0.8,0-1.6-0.2-2.2-0.7c-0.7-0.6-1.3-1.4-1.6-2.2c-0.3-0.7-0.5-1.5-0.5-2.3c0-0.6,0.1-1.3,0.4-1.8
	c0.3-0.5,0.6-0.9,1.1-1.2C190,133.5,190.8,133.1,191.6,132.8z M191.9,137c-0.5,0.2-1,0.4-1.4,0.7c-0.2,0.2-0.2,0.4-0.1,0.6
	c0.1,0.2,0.3,0.4,0.5,0.4c0.5-0.1,1-0.2,1.5-0.5l7.1-3c0.5-0.2,1-0.4,1.5-0.8c0.1-0.2,0.1-0.4,0-0.6c-0.1-0.2-0.3-0.4-0.5-0.4
	c-0.5,0.1-1,0.2-1.4,0.4L191.9,137z"/>
<path class="st3" d="M185.9,125.5l1.1-0.4c-0.5-0.1-1-0.4-1.4-0.7c-0.4-0.3-0.7-0.7-0.8-1.2c-0.2-0.5-0.3-1.1-0.1-1.7
	c0.1-0.5,0.4-0.9,0.7-1.2c0.6-0.4,1.3-0.7,2-1l5-2.1c0.8-0.4,1.6-0.6,2.4-0.8c0.5-0.1,1,0.1,1.4,0.3c0.5,0.3,0.8,0.8,1,1.3
	c0.2,0.4,0.3,0.9,0.2,1.4c-0.1,0.5-0.2,1-0.5,1.4l2.7-1.1l1.5,3.7l-13.7,5.6L185.9,125.5z M188.9,123c-0.5,0.2-0.9,0.4-1.3,0.6
	c-0.1,0.1-0.1,0.3-0.1,0.6c0.1,0.2,0.2,0.4,0.5,0.3c0.5-0.1,0.9-0.2,1.4-0.4l5-2c0.5-0.2,0.9-0.4,1.3-0.7c0.1-0.2,0.2-0.4,0.1-0.6
	c-0.1-0.2-0.2-0.3-0.4-0.3c-0.4,0.1-0.8,0.2-1.2,0.4L188.9,123z"/>
<path class="st3" d="M184.2,109.6l2.9-1.2c0.8-0.4,1.6-0.6,2.4-0.8c0.6-0.1,1.1-0.1,1.7,0.1c0.6,0.2,1.1,0.5,1.5,1
	c0.5,0.5,0.8,1.1,1.1,1.8c0.3,0.7,0.5,1.4,0.6,2.2c0.1,0.6,0,1.1-0.3,1.6c-0.2,0.5-0.6,0.9-1,1.2c-0.7,0.5-1.4,0.8-2.2,1.1l-3.1,1.2
	c-0.9,0.4-1.8,0.6-2.8,0.7c-0.7,0-1.5-0.2-2.1-0.7c-0.7-0.6-1.2-1.3-1.6-2.2c-0.3-0.7-0.5-1.5-0.5-2.3c0-1.1,0.5-2.2,1.3-2.9
	C183,110.2,183.6,109.9,184.2,109.6z M184.8,113.6c-0.4,0.1-0.8,0.3-1.1,0.6c-0.1,0.1-0.2,0.4-0.1,0.5c0.1,0.2,0.2,0.3,0.4,0.3
	c0.4-0.1,0.8-0.2,1.2-0.4l5.4-2.2c0.4-0.1,0.7-0.3,1.1-0.6c0.1-0.1,0.2-0.4,0.1-0.5c-0.1-0.2-0.2-0.3-0.4-0.3
	c-0.4,0-0.7,0.2-1.1,0.3L184.8,113.6z"/>
<path class="st3" d="M175.4,107.5l1.9-0.8l1.6,3.8l-1.9,0.8L175.4,107.5z M178,106.4l12-5l1.6,3.8l-12,4.9L178,106.4z"/>
<path class="st3" d="M175.9,101.4l1.1-0.4c-0.5-0.1-1-0.3-1.4-0.6c-0.9-0.7-1.3-1.8-1.1-2.9c0.1-0.5,0.4-0.9,0.8-1.2
	c0.7-0.4,1.4-0.8,2.2-1.1l8.4-3.5l1.5,3.7l-8.3,3.4c-0.5,0.2-1,0.4-1.5,0.7c-0.2,0.1-0.2,0.4-0.1,0.6c0.1,0.2,0.3,0.4,0.5,0.4
	c0.6-0.1,1.2-0.3,1.7-0.6l8.1-3.3l1.5,3.6l-12,5L175.9,101.4z"/>
<path class="st3" d="M170.3,92.2l1.9-0.8l-0.4-1l1.9-0.8l0.4,1l6.4-2.7c0.5-0.1,0.9-0.4,1.3-0.7c0.1-0.1,0-0.5-0.3-1.1l1.9-0.8
	L184,87c0.3,0.6,0.5,1.2,0.6,1.8c0.1,0.4,0,0.8-0.1,1.1c-0.1,0.4-0.3,0.7-0.6,0.9c-0.7,0.4-1.5,0.7-2.2,1l-6.1,2.5l0.3,0.8l-1.9,0.8
	l-0.3-0.8l-1.9,0.8L170.3,92.2z"/>
<path class="st3" d="M293.7,156.8l2.4,1.2l-4,7.7l-2-1c-2.6-4.2-4.2-6.8-4.8-7.7c-0.5-0.7-1-1.3-1.7-1.7c-0.3-0.2-0.6-0.3-1-0.2
	c-0.3,0-0.5,0.2-0.6,0.4c-0.1,0.2-0.1,0.5,0,0.8c0.3,0.4,0.7,0.7,1.1,0.8l1.3,0.7l-1.6,3.1l-0.5-0.3c-0.6-0.3-1.2-0.7-1.8-1.1
	c-0.4-0.4-0.8-0.8-1-1.3c-0.3-0.5-0.4-1.2-0.4-1.8c0.1-0.7,0.3-1.4,0.6-2c0.5-1.2,1.5-2.1,2.7-2.6c1.1-0.3,2.2-0.2,3.2,0.3
	c0.9,0.5,1.6,1.1,2.2,1.9c1.4,2.1,2.7,4.3,3.9,6.5L293.7,156.8z"/>
<path class="st3" d="M291.8,143.6l4.7,2.4c0.8,0.4,1.5,0.8,2.2,1.4c0.9,0.8,1.4,2,1.2,3.2c-0.1,0.7-0.3,1.3-0.6,1.9
	c-0.3,0.7-0.8,1.4-1.4,1.9c-0.4,0.4-1,0.7-1.6,0.9c-0.5,0.1-1.1,0.1-1.7,0c-0.8-0.2-1.6-0.5-2.3-0.9l-4.9-2.5
	c-1-0.5-1.9-1.1-2.7-1.8c-0.5-0.6-0.8-1.3-0.9-2.1c0-0.9,0.2-1.9,0.7-2.7c0.4-0.7,0.9-1.3,1.5-1.9c0.9-0.8,2.1-1.1,3.3-0.8
	C290.3,142.8,291.1,143.2,291.8,143.6z M288.8,146.5c-0.5-0.3-0.9-0.5-1.5-0.6c-0.2,0-0.5,0.1-0.5,0.4c-0.1,0.2-0.1,0.5,0,0.7
	c0.4,0.3,0.8,0.6,1.3,0.8l6.9,3.6c0.5,0.3,1,0.5,1.5,0.6c0.2,0,0.4-0.1,0.5-0.4c0.1-0.2,0.1-0.5,0-0.7c-0.4-0.3-0.8-0.6-1.3-0.8
	L288.8,146.5z"/>
<path class="st3" d="M296.8,134.1l4.7,2.4c0.8,0.4,1.5,0.8,2.2,1.4c0.4,0.4,0.8,0.9,1,1.4c0.2,0.6,0.3,1.2,0.2,1.8
	c-0.1,0.7-0.3,1.3-0.6,1.9c-0.4,0.7-0.8,1.4-1.4,1.9c-0.4,0.4-1,0.7-1.6,0.9c-0.5,0.1-1.1,0.1-1.7,0c-0.8-0.2-1.6-0.5-2.3-0.9
	l-4.9-2.5c-1-0.5-1.9-1.1-2.7-1.8c-0.5-0.6-0.8-1.3-0.9-2.1c0-0.9,0.2-1.9,0.7-2.7c0.4-0.7,0.9-1.3,1.5-1.9c0.5-0.4,1.1-0.7,1.7-0.9
	c0.5-0.1,1.1-0.1,1.6,0.1C295.2,133.3,296,133.7,296.8,134.1z M293.8,137c-0.5-0.3-0.9-0.5-1.5-0.6c-0.4,0-0.6,0.4-0.6,0.7
	c0,0.1,0,0.2,0.1,0.3c0.4,0.3,0.8,0.6,1.3,0.9l6.9,3.6c0.5,0.3,1,0.5,1.5,0.6c0.2,0,0.4-0.1,0.5-0.4c0.1-0.2,0.1-0.5,0-0.7
	c-0.4-0.3-0.8-0.6-1.3-0.8L293.8,137z"/>
<path class="st3" d="M298.7,125l1,0.6c-0.2-0.5-0.4-1-0.4-1.5c0-0.5,0.1-1,0.3-1.4c0.2-0.5,0.7-0.9,1.2-1.2c0.4-0.2,0.9-0.3,1.4-0.2
	c0.7,0.2,1.4,0.5,2,0.9l4.9,2.5c0.8,0.4,1.5,0.8,2.1,1.3c0.4,0.3,0.6,0.8,0.7,1.3c0.1,0.6-0.1,1.1-0.3,1.6c-0.2,0.4-0.5,0.8-0.9,1.1
	c-0.4,0.3-0.9,0.5-1.4,0.5l2.6,1.4l-1.8,3.5l-13.1-6.8L298.7,125z M302.5,125.7c-0.4-0.2-0.9-0.4-1.3-0.6c-0.2,0-0.3,0.1-0.5,0.3
	c-0.1,0.2-0.1,0.4,0,0.6c0.4,0.3,0.8,0.6,1.2,0.8l4.8,2.5c0.4,0.2,0.9,0.4,1.4,0.6c0.2,0,0.4-0.1,0.5-0.3c0.1-0.2,0.1-0.4,0-0.5
	c-0.3-0.3-0.7-0.5-1.1-0.7L302.5,125.7z"/>
<path class="st3" d="M309.8,113.5l2.8,1.5c0.8,0.4,1.5,0.8,2.2,1.3c0.4,0.4,0.8,0.8,1,1.4c0.2,0.6,0.3,1.2,0.2,1.8
	c-0.1,0.7-0.3,1.4-0.6,2c-0.3,0.7-0.8,1.3-1.3,1.8c-0.4,0.4-0.9,0.7-1.4,0.8c-0.5,0.1-1.1,0.1-1.6,0c-0.8-0.2-1.6-0.6-2.3-1
	l-2.9-1.5c-0.9-0.4-1.7-1-2.3-1.6c-0.5-0.6-0.8-1.3-0.8-2c0-0.9,0.2-1.8,0.6-2.6c0.3-0.7,0.8-1.3,1.4-1.8c0.5-0.4,1-0.7,1.6-0.8
	c0.5-0.1,1-0.1,1.5,0C308.5,112.9,309.2,113.2,309.8,113.5z M307.1,116.5c-0.4-0.2-0.7-0.4-1.2-0.5c-0.2,0-0.4,0.1-0.4,0.3
	c-0.1,0.2-0.1,0.4,0,0.5c0.3,0.3,0.7,0.5,1.1,0.7l5.2,2.7c0.3,0.2,0.7,0.4,1.1,0.4c0.2,0,0.4-0.1,0.5-0.3c0.1-0.2,0.1-0.4,0-0.5
	c-0.3-0.2-0.6-0.4-0.9-0.6L307.1,116.5z"/>
<path class="st3" d="M305.6,105.4l1.8,1l-1.9,3.6l-1.8-1L305.6,105.4z M308.2,106.7l11.5,6l-1.9,3.6l-11.5-6L308.2,106.7z"/>
<path class="st3" d="M310.7,101.8l1,0.6c-0.3-0.4-0.4-0.9-0.5-1.4c0-0.5,0.1-1,0.4-1.4c0.2-0.5,0.7-1,1.2-1.2c0.4-0.2,1-0.3,1.5-0.2
	c0.8,0.2,1.5,0.6,2.2,1l8.1,4.2l-1.8,3.5l-8-4.1c-0.5-0.3-1-0.5-1.5-0.7c-0.2,0-0.4,0.1-0.5,0.3c-0.1,0.2-0.1,0.5,0.1,0.6
	c0.5,0.4,1,0.7,1.5,0.9l7.8,4l-1.8,3.5l-11.5-6L310.7,101.8z"/>
<path class="st3" d="M314,91.6l1.8,0.9l0.5-1l1.8,1l-0.5,0.9l6.2,3.2c0.4,0.3,0.9,0.5,1.3,0.5c0.1,0,0.3-0.3,0.6-0.9l1.9,1l-0.7,1.4
	c-0.3,0.6-0.6,1.1-1,1.7c-0.2,0.3-0.6,0.5-0.9,0.7c-0.3,0.1-0.7,0.2-1.1,0.1c-0.8-0.3-1.5-0.6-2.2-1l-5.9-3l-0.4,0.8l-1.8-1l0.4-0.8
	l-1.8-0.9L314,91.6z"/>
<path class="st3" d="M141.3,216.5l0.7-2.5l4.7,1.4l0.8-2.6c-0.8,0.5-1.7,0.6-2.6,0.4c-0.9-0.2-1.7-0.8-2.1-1.6
	c-0.4-0.8-0.3-1.9,0.2-3.6l0.6-2.2c0.2-0.8,0.5-1.6,0.9-2.3c0.3-0.5,0.6-0.9,1.1-1.2c0.5-0.3,1.1-0.5,1.7-0.6c1.7,0,3.4,0.5,4.7,1.6
	c0.6,0.5,1,1.2,1.1,2c0.1,1.1-0.1,2.2-0.5,3.3l-0.2,0.8l-3.8-1.1l0.3-0.9c0.2-0.7,0.4-1.4,0.5-2.1c0.1-0.4-0.1-0.7-0.5-0.8
	c0,0,0,0,0,0c-0.2-0.1-0.3-0.1-0.5,0c-0.1,0.1-0.2,0.2-0.3,0.3c-0.1,0.1-0.2,0.7-0.6,1.8l-0.9,3c-0.2,0.4-0.2,0.8-0.2,1.2
	c0.1,0.2,0.2,0.4,0.5,0.5c0.2,0.1,0.3,0.1,0.5,0c0.1-0.1,0.2-0.1,0.3-0.3c0.1-0.3,0.2-0.5,0.3-0.8l3.7,1.1l-2.5,7.6L141.3,216.5z"/>
<path class="st3" d="M131.9,208l1.5-5c0.2-0.8,0.5-1.7,0.9-2.4c0.3-0.5,0.7-0.9,1.2-1.2c0.5-0.3,1.1-0.5,1.7-0.6
	c0.7,0,1.3,0.1,1.9,0.3c0.8,0.2,1.5,0.6,2.2,1c0.5,0.4,0.9,0.8,1.1,1.4c0.2,0.5,0.3,1.1,0.3,1.6c-0.1,0.8-0.2,1.6-0.5,2.4l-1.6,5.3
	c-0.3,1.1-0.7,2.1-1.3,3c-0.5,0.6-1.2,1.1-1.9,1.2c-0.9,0.2-1.9,0.1-2.8-0.2c-0.8-0.2-1.5-0.6-2.1-1.1c-0.5-0.4-0.9-0.9-1.1-1.5
	c-0.2-0.5-0.3-1.1-0.2-1.6C131.4,209.7,131.6,208.8,131.9,208z M135.3,210.4c-0.2,0.5-0.3,1-0.3,1.5c0,0.2,0.2,0.4,0.5,0.5
	c0.2,0.1,0.5,0,0.6-0.1c0.3-0.5,0.5-0.9,0.6-1.4l2.2-7.4c0.2-0.5,0.3-1.1,0.4-1.6c0-0.2-0.2-0.4-0.5-0.4c-0.2-0.1-0.5,0-0.6,0.1
	c-0.3,0.4-0.4,0.9-0.6,1.4L135.3,210.4z"/>
<path class="st3" d="M122.6,207.8l0.4-1.1c-0.4,0.3-0.9,0.5-1.4,0.6c-0.5,0.1-1,0.1-1.4-0.1c-0.6-0.2-1-0.5-1.4-0.9
	c-0.3-0.4-0.5-0.8-0.5-1.3c0.1-0.7,0.2-1.4,0.5-2.1l1.6-5.2c0.2-0.8,0.5-1.6,0.9-2.4c0.3-0.4,0.7-0.7,1.2-0.9c0.5-0.2,1.1-0.2,1.6,0
	c0.5,0.1,0.9,0.4,1.2,0.7c0.4,0.4,0.6,0.8,0.8,1.3l0.9-2.8l3.8,1.1l-4.3,14.2L122.6,207.8z M122.6,203.9c-0.2,0.5-0.3,0.9-0.3,1.4
	c0,0.2,0.1,0.3,0.4,0.4c0.2,0.1,0.4,0,0.6-0.1c0.2-0.4,0.4-0.9,0.5-1.3l1.6-5.1c0.2-0.5,0.3-0.9,0.3-1.4c0-0.2-0.2-0.4-0.4-0.4
	c-0.2-0.1-0.4,0-0.5,0.1c-0.2,0.4-0.4,0.8-0.5,1.2L122.6,203.9z"/>
<path class="st3" d="M109.3,199l0.9-3c0.2-0.8,0.5-1.6,0.9-2.4c0.3-0.5,0.7-0.9,1.2-1.2c0.5-0.3,1.1-0.5,1.7-0.6
	c0.7,0,1.4,0.1,2.1,0.3c0.7,0.2,1.4,0.5,2,0.9c0.5,0.3,0.8,0.7,1.1,1.2c0.2,0.5,0.3,1,0.3,1.6c-0.1,0.8-0.2,1.6-0.5,2.4l-1,3.2
	c-0.2,0.9-0.6,1.8-1.2,2.6c-0.5,0.6-1.1,1-1.8,1.1c-0.9,0.2-1.8,0.1-2.7-0.2c-0.8-0.2-1.5-0.5-2.1-1c-0.5-0.4-0.9-0.9-1.1-1.4
	c-0.2-0.5-0.3-1-0.3-1.5C108.9,200.4,109,199.7,109.3,199z M112.8,201.1c-0.1,0.4-0.2,0.8-0.3,1.2c0.1,0.3,0.4,0.5,0.7,0.4
	c0.1,0,0.2-0.1,0.2-0.1c0.2-0.4,0.4-0.8,0.5-1.2l1.7-5.6c0.1-0.4,0.2-0.8,0.2-1.2c0-0.2-0.2-0.4-0.4-0.4c-0.2-0.1-0.4,0-0.5,0.1
	c-0.2,0.3-0.3,0.6-0.4,1L112.8,201.1z"/>
<path class="st3" d="M102,204.5l0.6-2l3.9,1.2l-0.6,2L102,204.5z M102.8,201.8l3.8-12.4l3.9,1.2l-3.8,12.4L102.8,201.8z"/>
<path class="st3" d="M97.6,200.2l0.4-1.1c-0.4,0.3-0.8,0.6-1.3,0.7c-1.1,0.2-2.2-0.2-2.9-1c-0.3-0.4-0.5-0.9-0.4-1.4
	c0.1-0.8,0.3-1.6,0.5-2.4l2.6-8.7l3.8,1.1l-2.6,8.6c-0.2,0.5-0.3,1.1-0.4,1.6c0,0.2,0.1,0.3,0.4,0.4c0.2,0.1,0.5,0,0.6-0.2
	c0.3-0.5,0.5-1.1,0.6-1.7l2.5-8.4l3.8,1.1l-3.8,12.4L97.6,200.2z"/>
<path class="st3" d="M87,198.8l0.6-2l-1-0.3l0.6-2l1,0.3l2-6.6c0.2-0.4,0.3-0.9,0.3-1.4c0-0.1-0.4-0.3-1-0.4l0.6-2l1.5,0.5
	c0.6,0.2,1.2,0.4,1.8,0.7c0.3,0.2,0.6,0.5,0.8,0.8c0.2,0.3,0.3,0.7,0.3,1.1c-0.1,0.8-0.4,1.6-0.6,2.4L92,196l0.8,0.2l-0.6,2
	l-0.8-0.2l-0.6,2L87,198.8z"/>
<path class="st3" d="M149.1,275.8l3.8-1.6l0.6,1.3c0.2,0.5,0.4,1.1,0.8,1.5c0.2,0.2,0.4,0.2,0.6,0.1c0.2-0.1,0.4-0.2,0.4-0.5
	c-0.1-0.5-0.2-1-0.4-1.4l-2.9-7c-0.2-0.4-0.4-0.9-0.7-1.2c-0.2-0.2-0.4-0.2-0.6-0.1c-0.3,0.1-0.4,0.3-0.4,0.6c0.1,0.5,0.2,1,0.4,1.4
	l0.7,1.7l0.8-0.3l0.9,2.2l-4.4,1.8l-3.2-7.8l2.4-1l0.8,0.9c0.1-0.5,0.3-1,0.6-1.4c0.3-0.4,0.8-0.7,1.3-0.9c0.6-0.3,1.3-0.4,2-0.3
	c0.6,0.1,1.2,0.3,1.8,0.6c0.5,0.3,0.9,0.7,1.1,1.2c0.4,0.7,0.7,1.5,1,2.2l1.8,4.3c0.4,1,0.8,2.1,1,3.1c0.1,0.8-0.1,1.6-0.6,2.3
	c-0.6,0.9-1.4,1.6-2.4,1.9c-1,0.4-2,0.6-3.1,0.5c-0.8-0.1-1.5-0.4-2.1-1c-0.6-0.8-1.1-1.7-1.5-2.6L149.1,275.8z"/>
<path class="st3" d="M145.2,280.6l-0.5-1.6c0,1.1-0.6,2.2-1.6,2.7l-1.7-4.2c0.5-0.2,1-0.5,1.4-0.9c0.2-0.3,0.3-0.6,0.3-1
	c-0.2-0.8-0.5-1.5-0.8-2.3l-2-4.7l3.6-1.5l4.9,12L145.2,280.6z"/>
<path class="st3" d="M137.1,278.5l3.4-1.4l0.3,0.8c0.3,0.7,0.5,1.5,0.6,2.3c0,0.7-0.3,1.3-0.7,1.9c-0.6,0.7-1.4,1.3-2.3,1.6
	c-0.9,0.5-2,0.6-3.1,0.5c-0.7-0.1-1.4-0.5-1.8-1.1c-0.7-1.2-1.3-2.5-1.8-3.9l-2.5-6l3.6-1.5l0.4,1.1c0-0.5,0.2-0.9,0.5-1.3
	c0.3-0.4,0.7-0.7,1.1-0.8c0.6-0.3,1.3-0.3,2-0.2c0.7,0.1,1.3,0.8,1.8,2l0.4,1c0.3,0.6,0.4,1.3,0.3,2c-0.4,0.8-1,1.5-1.6,2
	c-1,1-1.5,1.5-1.5,1.8c0,0.3,0.1,0.7,0.3,1c0.1,0.4,0.4,0.8,0.6,1.2c0.2,0.1,0.4,0.2,0.6,0.1c0.2-0.1,0.4-0.2,0.4-0.4
	c-0.1-0.4-0.2-0.9-0.4-1.3L137.1,278.5z M135.3,277.4c0.3-0.4,0.5-1,0.6-1.5c-0.1-0.5-0.2-0.9-0.4-1.3c-0.1-0.4-0.4-0.8-0.6-1.1
	c-0.2-0.1-0.4-0.2-0.6-0.1c-0.2,0.1-0.4,0.2-0.4,0.4c0.1,0.4,0.2,0.8,0.4,1.2L135.3,277.4z"/>
<path class="st3" d="M129.8,288.9L129,287l-1,0.4l-0.8-1.9l1-0.4l-2.6-6.4c-0.1-0.5-0.4-0.9-0.7-1.3c-0.1,0-0.5,0-1.1,0.3l-0.8-1.9
	l1.5-0.6c0.6-0.3,1.2-0.5,1.8-0.6c0.4-0.1,0.8-0.1,1.1,0.1c0.3,0.1,0.6,0.3,0.9,0.6c0.4,0.7,0.7,1.5,1,2.2l2.5,6.1l0.8-0.3l0.8,1.9
	l-0.8,0.3l0.8,1.9L129.8,288.9z"/>
<path class="st3" d="M123.6,289.5l-4.9-12l3.8-1.5l4.9,12L123.6,289.5z M124.6,292.2l-0.8-1.9l3.8-1.5l0.8,1.9L124.6,292.2z"/>
<path class="st3" d="M113.2,289.3l3.2-1.3l0.3,0.6c0.1,0.4,0.3,0.7,0.5,1c0.2,0.1,0.4,0.1,0.6,0c0.2-0.1,0.3-0.2,0.4-0.4
	c0-0.2,0-0.5-0.1-0.7c-0.1-0.3-0.2-0.5-0.4-0.8c-0.2-0.2-0.4-0.3-0.7-0.4c-0.6-0.1-1.3-0.2-1.9-0.2c-0.9,0-1.8-0.2-2.7-0.6
	c-0.6-0.4-1.1-1.1-1.3-1.8c-0.4-0.7-0.5-1.5-0.5-2.4c0.1-0.6,0.3-1.2,0.8-1.7c0.6-0.6,1.3-1,2-1.3c0.8-0.4,1.7-0.5,2.6-0.5
	c0.7,0,1.3,0.2,1.8,0.6c0.6,0.6,1,1.3,1.3,2.1l0.2,0.6l-3.2,1.4l-0.3-0.8c-0.2-0.4-0.4-0.8-0.6-1.2c-0.2-0.2-0.4-0.2-0.6-0.1
	c-0.2,0.1-0.4,0.2-0.5,0.4c0,0.3,0,0.6,0.2,0.9c0.2,0.6,0.4,0.9,0.6,1c0.9,0.2,1.8,0.3,2.7,0.4c0.9,0,1.9,0.3,2.6,0.8
	c0.5,0.4,0.8,1,1.1,1.6c0.3,0.7,0.5,1.5,0.5,2.3c-0.1,0.6-0.4,1.2-0.9,1.6c-0.6,0.5-1.3,1-2,1.2c-0.7,0.3-1.4,0.5-2.2,0.5
	c-0.6,0-1.1-0.1-1.6-0.3c-0.4-0.2-0.7-0.4-0.9-0.7c-0.3-0.4-0.5-0.8-0.6-1.3L113.2,289.3z"/>
<path class="st3" d="M107.7,299.2l-1.4-3.5c-0.1,0.4-0.4,0.9-0.7,1.2c-0.3,0.3-0.7,0.6-1.1,0.8c-0.4,0.2-0.9,0.3-1.4,0.3
	c-0.4,0-0.8-0.1-1.1-0.3c-0.3-0.2-0.5-0.4-0.7-0.7c-0.3-0.6-0.5-1.1-0.8-1.7l-2.2-5.4c-0.3-0.6-0.5-1.3-0.6-2
	c-0.1-0.5,0.1-1,0.4-1.5c0.3-0.5,0.8-0.9,1.3-1.1c0.4-0.2,0.9-0.3,1.3-0.2c0.5,0,0.9,0.2,1.4,0.4l-0.1-1l3.4-1.4l6,14.6L107.7,299.2
	z M104.1,293.6c0.1,0.4,0.3,0.8,0.6,1.2c0.1,0.2,0.4,0.2,0.6,0.1c0.2-0.1,0.3-0.2,0.3-0.4c-0.1-0.4-0.2-0.9-0.4-1.3l-2.1-5.1
	c-0.1-0.4-0.4-0.8-0.6-1.2c-0.1-0.2-0.4-0.2-0.6-0.1c-0.2,0.1-0.3,0.2-0.3,0.5c0.1,0.5,0.2,0.9,0.5,1.4L104.1,293.6z"/>
<path class="st3" d="M96.9,300.5l-4.9-12l3.8-1.5l5,12L96.9,300.5z M98,303.2l-0.8-1.9l3.8-1.5l0.8,1.9L98,303.2z"/>
<path class="st3" d="M93,305.3l-6-14.6l3.8-1.5l6,14.6L93,305.3z"/>
<path class="st3" d="M87.9,307.4l-6-14.6l3.8-1.5l6,14.6L87.9,307.4z"/>
<path class="st3" d="M74.7,302.5l4.7-2l-1.1-2.6c-0.1-0.4-0.3-0.7-0.6-1c-0.2-0.1-0.4-0.1-0.6,0c-0.2,0.1-0.4,0.3-0.4,0.5
	c0,0.4,0.2,0.9,0.4,1.3l0.7,1.6l-3.5,1.4l-0.4-0.9c-0.3-0.6-0.4-1.2-0.6-1.8c-0.1-0.5,0-1,0.1-1.5c0.2-0.6,0.5-1.1,0.9-1.5
	c0.5-0.5,1.2-0.9,1.8-1.2c0.7-0.3,1.4-0.5,2.2-0.5c1.2-0.1,2.3,0.4,3,1.4c0.4,0.6,0.8,1.3,1,2l1.4,3.5c0.4,0.8,0.6,1.7,0.6,2.6
	c0,0.7-0.3,1.5-0.8,2c-0.6,0.6-1.2,1.1-2,1.4c-0.9,0.4-1.8,0.6-2.8,0.5c-0.8-0.1-1.5-0.5-2-1c-0.7-0.7-1.2-1.6-1.5-2.5L74.7,302.5z
	 M79.1,302.9l0.4,0.9c0.1,0.4,0.3,0.8,0.6,1.2c0.1,0.2,0.3,0.2,0.5,0.1c0.2-0.1,0.4-0.2,0.4-0.4c-0.1-0.4-0.2-0.9-0.4-1.3l-0.4-0.9
	L79.1,302.9z"/>
<path class="st3" d="M72.8,312.4l-0.8-1.9l-1,0.4l-0.8-1.9l1-0.4l-2.6-6.4c-0.1-0.5-0.4-0.9-0.7-1.3c-0.1-0.1-0.5,0-1.1,0.3
	l-0.8-1.9l1.5-0.6c0.6-0.3,1.2-0.5,1.8-0.6c0.4-0.1,0.8,0,1.1,0.1c0.3,0.1,0.6,0.3,0.9,0.6c0.4,0.7,0.7,1.5,1,2.2L75,307l0.8-0.3
	l0.8,1.9l-0.8,0.3l0.8,1.9L72.8,312.4z"/>
<path class="st3" d="M214.7,335.6l-14-7.3l1.8-3.5l7.5,3.9c0.6,0.4,1.3,0.7,2,0.9c0.3,0.1,0.5,0,0.7-0.2c0.4-0.4,0.8-0.9,1-1.5
	l0.2-0.4l1.6,0.9c-0.5,1.6-0.4,3.4,0.2,5L214.7,335.6z"/>
<path class="st3" d="M204.9,342.8l-4.7-2.4c-0.8-0.4-1.6-0.8-2.3-1.3c-0.4-0.4-0.8-0.9-1-1.4c-0.2-0.6-0.3-1.2-0.2-1.8
	c0.1-0.7,0.3-1.3,0.6-1.9c0.4-0.7,0.8-1.4,1.4-1.9c0.4-0.4,1-0.7,1.6-0.9c0.5-0.1,1.1-0.1,1.7,0c0.8,0.2,1.6,0.5,2.3,0.9l4.9,2.5
	c1,0.5,1.9,1.1,2.7,1.8c0.5,0.6,0.8,1.3,0.9,2.1c0,0.9-0.2,1.9-0.7,2.7c-0.4,0.7-0.9,1.3-1.5,1.9c-0.5,0.4-1.1,0.7-1.7,0.9
	c-0.5,0.1-1.1,0.1-1.6-0.1C206.5,343.6,205.7,343.2,204.9,342.8z M207.9,339.9c0.5,0.3,0.9,0.5,1.5,0.6c0.2,0,0.5-0.1,0.5-0.4
	c0.2-0.2,0.2-0.5,0-0.7c-0.4-0.4-0.8-0.6-1.3-0.8l-6.8-3.5c-0.5-0.3-1-0.5-1.5-0.6c-0.2,0-0.4,0.1-0.5,0.4c-0.2,0.2-0.2,0.5,0,0.7
	c0.4,0.3,0.8,0.6,1.3,0.8L207.9,339.9z"/>
<path class="st3" d="M200,352.3l-4.7-2.4c-0.8-0.4-1.5-0.8-2.2-1.4c-0.4-0.4-0.8-0.9-1-1.4c-0.2-0.6-0.3-1.2-0.2-1.8
	c0.1-0.7,0.3-1.3,0.6-1.9c0.3-0.7,0.8-1.4,1.4-1.9c0.4-0.4,1-0.7,1.6-0.9c0.5-0.1,1.1-0.1,1.7,0c0.8,0.2,1.6,0.5,2.3,0.9l4.9,2.5
	c1,0.5,1.9,1.1,2.7,1.8c0.5,0.6,0.8,1.3,0.9,2.1c0,0.9-0.2,1.9-0.7,2.7c-0.4,0.7-0.9,1.3-1.5,1.9c-0.9,0.8-2.1,1.1-3.3,0.8
	C201.6,353.1,200.8,352.7,200,352.3z M203,349.4c0.5,0.3,0.9,0.5,1.4,0.6c0.2,0,0.5-0.1,0.6-0.4c0.1-0.2,0.1-0.5,0-0.7
	c-0.4-0.3-0.8-0.6-1.3-0.8l-6.9-3.6c-0.5-0.3-1-0.5-1.5-0.6c-0.2,0-0.4,0.1-0.5,0.4c-0.1,0.2-0.1,0.5,0,0.7c0.4,0.3,0.8,0.6,1.3,0.8
	L203,349.4z"/>
<path class="st3" d="M195.1,361.8l-4.7-2.4c-0.8-0.4-1.5-0.8-2.2-1.4c-0.4-0.4-0.8-0.9-1-1.4c-0.2-0.6-0.3-1.2-0.2-1.8
	c0.1-0.7,0.3-1.3,0.6-1.9c0.3-0.7,0.8-1.4,1.4-1.9c0.4-0.4,1-0.7,1.6-0.9c0.5-0.1,1.1-0.1,1.7,0c0.8,0.2,1.6,0.5,2.3,0.9l4.9,2.5
	c1,0.5,1.9,1.1,2.7,1.8c0.5,0.6,0.8,1.3,0.9,2.1c0,0.9-0.2,1.9-0.7,2.7c-0.4,0.7-0.9,1.3-1.5,1.9c-0.5,0.4-1.1,0.7-1.7,0.9
	c-0.5,0.1-1.1,0.1-1.6-0.1C196.6,362.6,195.8,362.2,195.1,361.8z M198.1,358.9c0.5,0.3,0.9,0.5,1.5,0.6c0.4,0,0.6-0.4,0.6-0.7
	c0-0.1,0-0.2-0.1-0.3c-0.4-0.3-0.8-0.6-1.3-0.9l-6.9-3.5c-0.5-0.3-1-0.5-1.5-0.6c-0.2,0-0.4,0.1-0.5,0.4c-0.1,0.2-0.1,0.5,0,0.7
	c0.4,0.3,0.8,0.6,1.3,0.8L198.1,358.9z"/>
<path class="st3" d="M193.2,370.9l-1-0.6c0.2,0.5,0.4,1,0.4,1.5c0,0.5-0.1,1-0.3,1.4c-0.2,0.5-0.7,0.9-1.2,1.2
	c-0.4,0.2-0.9,0.3-1.4,0.2c-0.7-0.2-1.4-0.5-2-0.9l-4.9-2.5c-0.8-0.4-1.5-0.8-2.1-1.3c-0.4-0.3-0.6-0.8-0.7-1.3
	c-0.1-0.6,0.1-1.1,0.3-1.6c0.2-0.4,0.5-0.8,0.9-1c0.4-0.3,0.9-0.5,1.4-0.5l-2.6-1.4l1.8-3.5l13.1,6.9L193.2,370.9z M189.3,370.2
	c0.4,0.2,0.9,0.4,1.3,0.6c0.2,0,0.3-0.1,0.4-0.3c0.1-0.2,0.1-0.4,0-0.6c-0.4-0.3-0.8-0.6-1.2-0.8l-4.8-2.5c-0.4-0.2-0.9-0.4-1.4-0.6
	c-0.2,0-0.4,0.1-0.5,0.3c-0.1,0.2-0.1,0.4,0,0.5c0.3,0.3,0.7,0.5,1.1,0.7L189.3,370.2z"/>
<path class="st3" d="M182.1,382.4l-2.8-1.5c-0.8-0.4-1.5-0.8-2.2-1.3c-0.4-0.4-0.8-0.8-1-1.4c-0.2-0.6-0.3-1.2-0.2-1.8
	c0.1-0.7,0.3-1.4,0.6-2c0.3-0.7,0.8-1.3,1.3-1.8c0.4-0.4,0.9-0.7,1.4-0.9c0.5-0.1,1.1-0.1,1.6,0c0.8,0.2,1.6,0.5,2.3,1l2.9,1.5
	c0.9,0.4,1.7,1,2.3,1.6c0.5,0.6,0.8,1.3,0.8,2c0,0.9-0.2,1.8-0.6,2.6c-0.3,0.7-0.8,1.3-1.4,1.8c-0.5,0.4-1,0.7-1.6,0.8
	c-0.5,0.1-1,0.1-1.5,0C183.3,383,182.7,382.7,182.1,382.4z M184.8,379.3c0.4,0.2,0.7,0.4,1.2,0.5c0.2,0,0.4-0.1,0.4-0.3
	c0.1-0.2,0.1-0.4,0-0.5c-0.3-0.3-0.7-0.5-1.1-0.7l-5.2-2.7c-0.3-0.2-0.7-0.4-1.1-0.5c-0.2,0-0.4,0.1-0.5,0.3c-0.1,0.2-0.1,0.4,0,0.5
	c0.3,0.2,0.6,0.4,0.9,0.6L184.8,379.3z"/>
<path class="st3" d="M183.7,389.2l-11.5-6l1.9-3.6l11.5,6L183.7,389.2z M186.2,390.6l-1.8-1l1.9-3.6l1.8,1L186.2,390.6z"/>
<path class="st3" d="M181.2,394.1l-1-0.6c0.3,0.4,0.4,0.9,0.5,1.4c0,0.5-0.1,1-0.4,1.4c-0.2,0.5-0.7,1-1.2,1.2
	c-0.4,0.2-1,0.3-1.4,0.2c-0.8-0.2-1.5-0.6-2.2-1l-8.1-4.2l1.8-3.5l8,4.1c0.5,0.3,1,0.5,1.5,0.7c0.2,0,0.4-0.1,0.5-0.3
	c0.1-0.2,0.1-0.5-0.1-0.6c-0.5-0.4-1-0.7-1.6-0.9l-7.8-4l1.8-3.5l11.5,6L181.2,394.1z"/>
<path class="st3" d="M177.8,404.3l-1.8-0.9l-0.5,1l-1.8-1l0.5-0.9l-6.2-3.2c-0.4-0.3-0.9-0.5-1.3-0.5c-0.1,0-0.3,0.3-0.6,0.9l-1.9-1
	l0.7-1.4c0.3-0.6,0.6-1.1,1-1.7c0.2-0.3,0.6-0.5,0.9-0.7c0.3-0.1,0.7-0.2,1.1-0.1c0.8,0.3,1.5,0.6,2.2,1l5.9,3l0.4-0.8l1.8,1
	l-0.4,0.8l1.8,0.9L177.8,404.3z"/>
<path class="st3" d="M289.8,335.6l-2.3,1l-1.9-4.6l-2.5,1c0.9,0.3,1.6,0.9,1.9,1.8c0.4,0.8,0.4,1.8,0.1,2.6
	c-0.4,0.7-1.3,1.5-2.9,2.1l-2.1,0.9c-0.8,0.3-1.5,0.6-2.3,0.8c-0.5,0.1-1.1,0.1-1.6-0.1c-0.6-0.2-1.1-0.5-1.5-1
	c-0.5-0.6-0.9-1.3-1.2-2c-0.4-0.8-0.6-1.8-0.5-2.7c0-0.8,0.3-1.5,0.8-2.1c0.8-0.8,1.8-1.3,2.8-1.7l0.8-0.3l1.5,3.6l-0.9,0.4
	c-0.7,0.3-1.4,0.6-2,0.9c-0.4,0.2-0.5,0.6-0.3,1c0.1,0.1,0.2,0.2,0.3,0.3c0.1,0.1,0.3,0.1,0.4,0c0.1,0,0.7-0.3,1.7-0.7l2.9-1.2
	c0.4-0.1,0.7-0.4,1-0.6c0.2-0.2,0.2-0.5,0.1-0.7c-0.1-0.2-0.2-0.3-0.3-0.4c-0.1-0.1-0.3-0.1-0.4-0.1c-0.3,0.1-0.6,0.2-0.8,0.3
	l-1.5-3.6l7.4-2.9L289.8,335.6z"/>
<path class="st3" d="M289.2,348.2l-4.9,2c-0.8,0.4-1.6,0.6-2.5,0.8c-1.2,0.2-2.4-0.3-3.2-1.1c-0.4-0.5-0.8-1.1-1-1.7
	c-0.3-0.7-0.5-1.5-0.6-2.3c-0.1-0.6,0.1-1.2,0.4-1.8c0.3-0.5,0.6-0.9,1-1.3c0.7-0.5,1.4-0.9,2.2-1.1l5.1-2.1c1-0.5,2.1-0.8,3.2-0.9
	c0.8,0,1.6,0.2,2.2,0.7c0.7,0.6,1.3,1.4,1.6,2.3c0.3,0.7,0.5,1.5,0.5,2.3c0,0.6-0.1,1.3-0.4,1.8c-0.3,0.5-0.6,0.9-1.1,1.2
	C290.8,347.5,290,347.9,289.2,348.2z M288.9,344c0.5-0.2,1-0.4,1.4-0.7c0.2-0.2,0.2-0.4,0.1-0.6c-0.1-0.2-0.3-0.4-0.5-0.4
	c-0.5,0.1-1,0.2-1.5,0.5l-7.1,3c-0.5,0.2-1,0.4-1.5,0.8c-0.1,0.2-0.2,0.4,0,0.6c0.1,0.2,0.3,0.4,0.5,0.4c0.5-0.1,1-0.2,1.4-0.4
	L288.9,344z"/>
<path class="st3" d="M293.3,358.1l-4.9,2c-0.8,0.4-1.6,0.6-2.5,0.8c-0.6,0.1-1.2,0-1.7-0.2c-0.6-0.2-1.1-0.5-1.5-1
	c-0.4-0.5-0.8-1.1-1-1.7c-0.3-0.7-0.5-1.5-0.6-2.3c-0.1-0.6,0.1-1.2,0.4-1.8c0.3-0.5,0.6-0.9,1-1.3c0.7-0.5,1.4-0.9,2.2-1.1l5.1-2.1
	c1-0.5,2.1-0.8,3.2-0.9c0.8,0,1.6,0.2,2.2,0.7c0.7,0.6,1.3,1.4,1.6,2.2c0.3,0.7,0.5,1.5,0.5,2.3c0,0.6-0.1,1.3-0.4,1.8
	c-0.3,0.5-0.6,0.9-1.1,1.2C294.9,357.4,294.1,357.8,293.3,358.1z M293,354c0.5-0.2,1-0.4,1.4-0.7c0.2-0.2,0.2-0.4,0.1-0.6
	c-0.1-0.2-0.3-0.4-0.5-0.4c-0.5,0.1-1,0.2-1.5,0.5l-7.1,2.9c-0.5,0.2-1,0.4-1.5,0.8c-0.1,0.2-0.1,0.4,0,0.6c0.1,0.2,0.3,0.4,0.5,0.4
	c0.5-0.1,1-0.2,1.4-0.5L293,354z"/>
<path class="st3" d="M299,365.4l-1.1,0.4c0.5,0.1,1,0.3,1.4,0.7c0.4,0.3,0.7,0.7,0.8,1.2c0.2,0.5,0.3,1.1,0.1,1.6
	c-0.1,0.5-0.4,0.9-0.7,1.2c-0.6,0.4-1.3,0.7-2,1l-5,2.1c-0.8,0.4-1.6,0.6-2.4,0.8c-0.5,0.1-1-0.1-1.4-0.3c-0.5-0.3-0.8-0.8-1-1.3
	c-0.2-0.4-0.2-0.9-0.2-1.4c0.1-0.5,0.2-1,0.5-1.5l-2.7,1.1l-1.5-3.6l13.7-5.6L299,365.4z M295.9,367.9c0.5-0.2,0.9-0.4,1.3-0.6
	c0.1-0.1,0.2-0.3,0-0.5c-0.1-0.2-0.2-0.4-0.5-0.4c-0.5,0.1-0.9,0.2-1.4,0.4l-5,2c-0.5,0.2-0.9,0.4-1.3,0.7c-0.1,0.2-0.2,0.4-0.1,0.6
	c0.1,0.2,0.2,0.4,0.4,0.3c0.4-0.1,0.8-0.2,1.2-0.4L295.9,367.9z"/>
<path class="st3" d="M300.6,381.3l-2.9,1.2c-0.8,0.3-1.6,0.6-2.4,0.8c-0.6,0.1-1.1,0.1-1.7-0.1c-0.6-0.2-1.1-0.5-1.5-1
	c-0.5-0.5-0.8-1.1-1.1-1.8c-0.3-0.7-0.5-1.4-0.6-2.2c-0.1-0.6,0-1.1,0.3-1.6c0.2-0.5,0.6-0.9,1-1.2c0.7-0.5,1.4-0.8,2.2-1.1l3.1-1.3
	c0.9-0.4,1.8-0.6,2.8-0.7c0.7,0,1.4,0.2,2,0.7c0.7,0.6,1.2,1.3,1.6,2.2c0.3,0.7,0.5,1.5,0.5,2.3c0,1.1-0.5,2.2-1.3,2.9
	C301.8,380.7,301.2,381,300.6,381.3z M300,377.3c0.4-0.1,0.8-0.3,1.1-0.6c0.1-0.1,0.2-0.4,0.1-0.5c-0.1-0.2-0.2-0.3-0.4-0.3
	c-0.4,0.1-0.8,0.2-1.2,0.4l-5.4,2.2c-0.4,0.1-0.7,0.3-1.1,0.6c-0.1,0.1-0.2,0.4-0.1,0.5c0.1,0.2,0.2,0.3,0.4,0.3
	c0.4,0,0.7-0.2,1-0.3L300,377.3z"/>
<path class="st3" d="M306.9,384.5l-12,5l-1.5-3.8l12-4.9L306.9,384.5z M309.5,383.4l-1.9,0.8l-1.5-3.8l1.9-0.8L309.5,383.4z"/>
<path class="st3" d="M308.9,389.5l-1.1,0.4c0.5,0.1,1,0.3,1.4,0.6c0.9,0.7,1.3,1.8,1.1,2.9c-0.1,0.5-0.4,0.9-0.8,1.2
	c-0.7,0.4-1.4,0.8-2.2,1.1l-8.4,3.5l-1.5-3.6l8.3-3.4c0.5-0.2,1-0.4,1.5-0.7c0.2-0.1,0.2-0.4,0.1-0.6c-0.1-0.2-0.3-0.4-0.5-0.4
	c-0.6,0.1-1.2,0.3-1.7,0.6l-8.1,3.3l-1.5-3.6l12-5L308.9,389.5z"/>
<path class="st3" d="M314.6,398.7l-1.9,0.8l0.4,1l-1.9,0.8l-0.4-1l-6.4,2.6c-0.5,0.1-0.9,0.4-1.3,0.7c0,0.4,0.1,0.7,0.3,1.1
	l-1.9,0.8l-0.6-1.5c-0.3-0.6-0.5-1.2-0.6-1.8c-0.1-0.4-0.1-0.8,0.1-1.1c0.1-0.4,0.3-0.7,0.6-0.9c0.7-0.4,1.5-0.7,2.2-1l6.1-2.5
	l-0.3-0.8l1.9-0.8l0.3,0.8l1.9-0.8L314.6,398.7z"/>
<circle class="st3" cx="246.2" cy="246.7" r="21.6"/>
<path class="st3" d="M246.2,269.4c-12.5,0-22.6-10.1-22.6-22.6c0-12.5,10.1-22.6,22.6-22.6s22.6,10.1,22.6,22.6
	C268.9,259.2,258.7,269.4,246.2,269.4z M246.2,226.1c-11.4,0-20.6,9.2-20.6,20.6c0,11.4,9.2,20.6,20.6,20.6
	c11.4,0,20.6-9.2,20.6-20.6C266.9,235.4,257.6,226.1,246.2,226.1L246.2,226.1z"/>
</svg>
