<svg xmlns="http://www.w3.org/2000/svg" xmlns:xlink="http://www.w3.org/1999/xlink" width="161.674" height="73" viewBox="0 0 161.674 73">
  <defs>
    <clipPath id="clip-path">
      <rect id="Rectangle_1606" data-name="Rectangle 1606" width="161.674" height="73" fill="#f9b233"/>
    </clipPath>
    <clipPath id="clip-Artboard">
      <rect width="161.674" height="73"/>
    </clipPath>
  </defs>
  <g id="Artboard" clip-path="url(#clip-Artboard)">
    <g id="Group_48" data-name="Group 48">
      <path id="Path_38045" data-name="Path 38045" d="M36.08,36.4V49H30.76V19.241h5.32V30.68l3.48-11.439H44.8L40.6,32.76,45.24,49h-5.6Z" fill="#f9b233"/>
      <g id="Group_47" data-name="Group 47">
        <g id="Group_46" data-name="Group 46" clip-path="url(#clip-path)">
          <path id="Path_38046" data-name="Path 38046" d="M45.12,43.321V33.12a6.275,6.275,0,0,1,1.48-4.46,5.37,5.37,0,0,1,4.12-1.58h1.04a5.374,5.374,0,0,1,3.48,1.16l.4-.759h2.64l-1.4,2.759a8.132,8.132,0,0,1,.48,2.8v10.2a6.508,6.508,0,0,1-1.5,4.44,5.158,5.158,0,0,1-4.1,1.721H50.72a5.145,5.145,0,0,1-3.4-1.2l-.4.8H44.24l1.44-2.8a6.588,6.588,0,0,1-.56-2.879m7.24-9.8v-.56q0-1.479-1.12-1.479T50.12,32.96v5.481ZM51.24,44.8q1.119,0,1.12-1.52V38.12l-2.24,4.84v.32q0,1.521,1.12,1.52" fill="#f9b233"/>
          <path id="Path_38047" data-name="Path 38047" d="M58.52,19.24h5.12V29.88q1.6-2.64,3.64-2.64h.24a2.775,2.775,0,0,1,2.34,1.14,4.3,4.3,0,0,1,.86,2.66V44.56a5.3,5.3,0,0,1-1.14,3.32,3.439,3.439,0,0,1-2.82,1.48h-.08a3.238,3.238,0,0,1-1.88-.58,4.846,4.846,0,0,1-1.22-1.12q-.38-.54-.94-1.54A11.364,11.364,0,0,0,62.12,49h-3.6Zm5.12,13.8V43.519q0,1.4.96,1.4t.96-1.32V33.04q0-1.4-1-1.4-.919,0-.92,1.4" fill="#f9b233"/>
          <path id="Path_38048" data-name="Path 38048" d="M76.079,19.24H81.2V29.88q1.6-2.64,3.64-2.64h.24a2.775,2.775,0,0,1,2.34,1.14,4.3,4.3,0,0,1,.86,2.66V44.56a5.3,5.3,0,0,1-1.14,3.32,3.439,3.439,0,0,1-2.82,1.48h-.08a3.238,3.238,0,0,1-1.88-.58,4.847,4.847,0,0,1-1.22-1.12q-.379-.54-.94-1.54a11.364,11.364,0,0,0-.52,2.88h-3.6Zm5.12,13.8V43.519q0,1.4.96,1.4t.96-1.32V33.04q0-1.4-1-1.4-.92,0-.92,1.4" fill="#f9b233"/>
          <path id="Path_38049" data-name="Path 38049" d="M94.639,26.441h-5.12V21.4h5.12Zm0,22.559h-5.12V27.48h5.12Z" fill="#f9b233"/>
          <rect id="Rectangle_1604" data-name="Rectangle 1604" width="5.12" height="29.76" transform="translate(95.919 19.24)" fill="#f9b233"/>
          <rect id="Rectangle_1605" data-name="Rectangle 1605" width="5.12" height="29.76" transform="translate(102.318 19.24)" fill="#f9b233"/>
          <path id="Path_38050" data-name="Path 38050" d="M114.957,27.081q5.4,0,5.4,5.479v6.36h-6.839V43.6c0,.881.332,1.32,1,1.32q.92,0,.919-1.32V40.4h4.92v3.92a4.706,4.706,0,0,1-1.521,3.76,5.705,5.705,0,0,1-3.88,1.32H114a5.656,5.656,0,0,1-3.939-1.32,4.806,4.806,0,0,1-1.46-3.76V32.481a5.713,5.713,0,0,1,1.319-3.881A5.126,5.126,0,0,1,114,27.081Zm-1.438,5.4v2.6H115.6v-2.6q0-1.441-1.04-1.44a.9.9,0,0,0-.84.339,2.268,2.268,0,0,0-.2,1.1" fill="#f9b233"/>
          <path id="Path_38051" data-name="Path 38051" d="M130.918,49H125.8a2.265,2.265,0,0,1-1.74-.76,2.672,2.672,0,0,1-.7-1.88V32.24h-2.439V27.48h2.439V20.36h5.081v7.12h2.48v4.76h-2.48V43.28a1.226,1.226,0,0,0,.139.68c.094.134.3.2.62.2h1.721Z" fill="#f9b233"/>
        </g>
      </g>
      <path id="Path_38052" data-name="Path 38052" d="M16.118,38.273,2.86,2H158.67L143.5,38.277,158.552,71H2.96ZM0,0,13.977,38.239,0,73H161.674L145.686,38.239,161.674,0Z" fill="#f9b233"/>
    </g>
  </g>
</svg>
