<svg xmlns="http://www.w3.org/2000/svg" xmlns:xlink="http://www.w3.org/1999/xlink" width="671.671" height="1080.537" viewBox="0 0 671.671 1080.537">
  <defs>
    <clipPath id="clip-path">
      <rect y="49" width="671.671" height="1080.537" fill="none"/>
    </clipPath>
    <clipPath id="clip-path-2">
      <rect id="Rectangle_1447" data-name="Rectangle 1447" width="671.671" height="1401.537" fill="#e637a7"/>
    </clipPath>
  </defs>
  <g id="Group_8" data-name="Group 8" transform="translate(0 -49.001)">
    <g id="Scroll_Group_1" data-name="Scroll Group 1" transform="translate(0 0.001)" clip-path="url(#clip-path)" style="isolation: isolate">
      <g id="Group_7" data-name="Group 7" clip-path="url(#clip-path-2)">
        <g id="Group_6" data-name="Group 6" style="isolation: isolate">
          <g id="Group_5" data-name="Group 5">
            <g id="Group_4" data-name="Group 4" clip-path="url(#clip-path-2)">
              <path id="Path_211" data-name="Path 211" d="M1.315,4.271C13.264-9.774,51.159,14.537,116.057,23.806c70.919,10.126,85.347-11.675,141.5,7.258,22.65,7.637,41.19,18.168,64.318,31.456,30.293,17.4,45.611,26.4,54.026,41.133,6.876,12.032,6.851,20.666,18.01,31.454,9.9,9.578,18.736,11.3,30.949,16.845,19.635,8.918,29.238,23.863,56.529,45.779,13.184,10.588,22.4,23.3,40.825,48.736,26.83,37.025,44.043,60.777,50.247,95.992a189.557,189.557,0,0,1,1.57,50.21c-2.717,25.818-8.2,24.829-7.153,35.5,3.648,37.182,69.592,42.688,98.227,98.89,9.016,17.692,6.792,25.608,4.711,29.535-7.878,14.868-33.364,9.693-42.4,26.582-4.214,7.878-4.115,19.19,1.57,25.106,6.423,6.682,15.713,2.048,23.553,8.86,8.876,7.711,6.725,22.13,6.281,25.106-3.029,20.319-32.255,27.6-29.834,33.966,1.673,4.4,14.434-.043,21.983,7.384,6.887,6.774,6.713,20.749,0,28.059-7.377,8.031-17.258,2.149-26.695,7.384-22.237,12.336,2.966,61.468-20.411,90.084-10.291,12.6-25.239,15.4-53.389,20.675-49.242,9.231-73.636-5.3-125.618,7.384-12.461,3.043-25.469,7.395-29.834,17.722-5.335,12.619,4.973,27.678,6.281,29.535,7.22,10.259,14.761,11.078,18.842,16.246,12.314,15.595-17.26,48.635-39.255,82.7,0,0-15.58,24.128-40.823,83.585-53.76,126.627,111.625,313.255,81.254,333.144-2.048,1.341-3.973,1.261-8.956,1.092-42.632-1.433-85.454,2.188-127.969-1.092-1.824-.14-.635-.041-109.843,0-89.818.034-173.23,0-173.238,0s.143-29.688.2-47.284c.073-22.7.023-30.248,0-72.171,0,0,0-6.014,0-59.438.006-94.448,1.729-212.966,1.5-341.052-.189-108.918-1.556-92.924-1.5-196.705.057-109.1,1.516-115.055,1.5-217.933C3.008,365.21,1.587,363.18,1.514,236.279c-.042-75.9.247-94.382.2-120.03-.031-16.28-.14-15.456-.2-31.391C1.358,40.339,1.9,44.952,1.463,33.4.528,8.56-1.222,7.252,1.315,4.271" transform="translate(0 -0.002)" fill="#e637a7"/>
            </g>
          </g>
        </g>
      </g>
    </g>
  </g>
</svg>
