<svg xmlns="http://www.w3.org/2000/svg" xmlns:xlink="http://www.w3.org/1999/xlink" width="60" height="60" viewBox="0 0 60 60">
  <defs>
    <clipPath id="clip-Artboard_4">
      <rect width="60" height="60"/>
    </clipPath>
  </defs>
  <g id="Artboard_4" data-name="Artboard – 4" clip-path="url(#clip-Artboard_4)">
    <g id="Twitter" transform="translate(1.027 6.5)">
      <path id="Path_2" data-name="Path 2" d="M56.349,49c21.891,0,33.8-18.027,33.8-33.8v-1.61a26.167,26.167,0,0,0,5.795-6.116A26.724,26.724,0,0,1,89.185,9.4a12.525,12.525,0,0,0,5.151-6.438,29.527,29.527,0,0,1-7.4,2.9A11.5,11.5,0,0,0,78.24,2,12.1,12.1,0,0,0,66.329,13.911a6.276,6.276,0,0,0,.322,2.575A33.283,33.283,0,0,1,42.185,3.932a12.328,12.328,0,0,0-1.61,6.116,12.79,12.79,0,0,0,5.151,9.979,10.852,10.852,0,0,1-5.473-1.61h0a11.765,11.765,0,0,0,9.658,11.589,9.924,9.924,0,0,1-3.219.322,5.478,5.478,0,0,1-2.253-.322,12.2,12.2,0,0,0,11.267,8.37A24.305,24.305,0,0,1,40.9,43.528a8.913,8.913,0,0,1-2.9-.322A30.385,30.385,0,0,0,56.349,49" transform="translate(-38 -2)" fill-rule="evenodd"/>
    </g>
  </g>
</svg>
