<svg xmlns="http://www.w3.org/2000/svg" xmlns:xlink="http://www.w3.org/1999/xlink" width="60" height="60" viewBox="0 0 60 60">
  <defs>
    <clipPath id="clip-Artboard_8">
      <rect width="60" height="60"/>
    </clipPath>
  </defs>
  <g id="Artboard_8" data-name="Artboard – 8" clip-path="url(#clip-Artboard_8)">
    <g id="XMLID_822_" transform="translate(0 -36.017)">
      <path id="XMLID_823_" d="M57.661,49.368c-2.166-2.451-6.165-3.451-13.8-3.451H16.139c-7.811,0-11.878,1.064-14.036,3.674C0,52.135,0,55.884,0,61.073v9.889C0,81.014,2.5,86.118,16.139,86.118H43.86c6.622,0,10.292-.882,12.666-3.045C58.961,80.854,60,77.232,60,70.962V61.073C60,55.6,59.837,51.83,57.661,49.368ZM38.52,67.383,25.932,73.646a2.021,2.021,0,0,1-1.9-.057,1.826,1.826,0,0,1-.933-1.576V59.526a1.826,1.826,0,0,1,.931-1.575,2.02,2.02,0,0,1,1.9-.06l12.588,6.223a1.8,1.8,0,0,1,0,3.269Z" transform="translate(0 0)"/>
    </g>
  </g>
</svg>
